<?xml version="1.0" encoding="UTF-8"?>
<!DOCTYPE svg PUBLIC "-//W3C//DTD SVG 1.1//EN" "http://www.w3.org/Graphics/SVG/1.1/DTD/svg11.dtd">
<!-- Creator: CorelDRAW X8 -->
<svg xmlns="http://www.w3.org/2000/svg" xml:space="preserve" width="100%" height="100%" version="1.1" shape-rendering="geometricPrecision" text-rendering="geometricPrecision" image-rendering="optimizeQuality" fill-rule="evenodd" clip-rule="evenodd"
viewBox="0 0 827 1169"
 xmlns:xlink="http://www.w3.org/1999/xlink">
 <g id="Layer_x0020_1">
  <metadata id="CorelCorpID_0Corel-Layer"/>
  <g id="_3125882995056">
   <path fill="#373435" stroke="#373435" stroke-width="0.694488" d="M524 44c157,0 284,137 284,306 0,168 -127,305 -284,305l0 -142c84,0 152,-73 152,-163 0,-91 -68,-164 -152,-164l0 -142z"/>
   <path fill="#373435" stroke="#373435" stroke-width="0.694488" d="M310 1125c-157,0 -285,-137 -285,-306 0,-169 128,-306 285,-306l0 142c-84,0 -152,74 -152,164 0,90 68,163 152,163l0 143z"/>
   <path fill="#373435" stroke="#373435" stroke-width="0.694488" d="M350 1123l0 -95 0 -17 0 -109 0 -580 0 -98 0 -28 0 -96c0,-12 5,-24 14,-34 36,-14 76,-22 119,-22l0 95 0 18 0 109 0 579 0 98 0 28 0 96c0,13 -5,24 -14,34 -36,14 -76,22 -119,22z"/>
  </g>
 </g>
</svg>
